#include "notes.h"

int gotTheme_melody[] = {
  NOTE_G4, NOTE_C4, NOTE_DS4, NOTE_F4,
  NOTE_G4, NOTE_C4, NOTE_DS4, NOTE_F4,
  NOTE_G4, NOTE_C4, NOTE_DS4, NOTE_F4,
  NOTE_G4, NOTE_C4, NOTE_DS4, NOTE_F4,

  NOTE_G4, NOTE_C4, NOTE_E4, NOTE_F4,
  NOTE_G4, NOTE_C4, NOTE_E4, NOTE_F4,
  NOTE_G4, NOTE_C4, NOTE_E4, NOTE_F4,
  NOTE_G4, NOTE_C4, NOTE_E4, NOTE_F4,

  NOTE_G4, //EVT G3?? ELLER 2? USIKKER PÅ NUMMER (BASS KEY)
  NOTE_C4,
  NOTE_DS4, NOTE_F4, NOTE_G4,
  NOTE_C4, NOTE_DS4, NOTE_F4,

  NOTE_D4, NOTE_G3, NOTE_AS3, NOTE_C4,
  NOTE_D4, NOTE_G3, NOTE_AS3, NOTE_C4,
  NOTE_D4, NOTE_G3, NOTE_AS3, NOTE_C4,
  NOTE_D4, NOTE_G3, NOTE_AS3,

  NOTE_F4, 
  NOTE_AS3,
  NOTE_DS4, NOTE_D4, NOTE_F4, //DS4 ELLER AS4
  NOTE_AS3, NOTE_DS4, NOTE_D4,
  
  NOTE_C4, NOTE_F3, NOTE_GS3, NOTE_AS3, //C4 ELLER GS4
  NOTE_C4, NOTE_F3, NOTE_GS3, NOTE_AS3,
  NOTE_C4, NOTE_F3, NOTE_GS3, NOTE_AS3, // SAMME
  NOTE_C4, NOTE_F3, NOTE_GS3,

  NOTE_G4, 
  NOTE_C4,
  NOTE_DS4, NOTE_F4, NOTE_G4,
  NOTE_C4, NOTE_DS4, NOTE_F4,

  NOTE_D4, NOTE_G3, NOTE_AS3, NOTE_C4,
  NOTE_D4, NOTE_G3, NOTE_AS3, NOTE_C4,
  NOTE_D4, NOTE_G3, NOTE_AS3, NOTE_C4,
  NOTE_D4, NOTE_G3, NOTE_AS3,

  NOTE_F4, 
  NOTE_AS3,
  NOTE_DS4, NOTE_D4, NOTE_F4, //DS4 ELLER ...
  NOTE_AS3, NOTE_DS4, NOTE_D4,

  NOTE_C4, NOTE_G3, NOTE_GS3, NOTE_AS3, //C4 ELLER ...
  NOTE_C4, NOTE_G3, NOTE_GS3, NOTE_AS3,
  NOTE_C4, NOTE_G3, NOTE_GS3, NOTE_AS3, //ELLER ...
  NOTE_C4, NOTE_G3, NOTE_C4
  };

int gotTheme_doubleReal[] = {
  250, 250, 125, 125,
  250, 250, 125, 125,
  250, 250, 125, 125,
  250, 250, 125, 125,

  250, 250, 125, 125,
  250, 250, 125, 125,
  250, 250, 125, 125,
  250, 250, 125, 125,

  750,
  750,
  125, 125, 500
  500, 125, 125,

  250, 250, 125, 125,
  250, 250, 125, 125,
  250, 250, 125, 125,
  250, 250, 250,

  750,
  750,
  125, 125, 500
  500, 125, 125,

  250, 250, 125, 125,
  250, 250, 125, 125,
  250, 250, 125, 125,
  250, 250, 250,

  750,
  750,
  125, 125, 500
  500, 125, 125,

  250, 250, 125, 125,
  250, 250, 125, 125,
  250, 250, 125, 125,
  250, 250, 250,

  750,
  750,
  125, 125, 500
  500, 125, 125,

  250, 250, 125, 125,
  250, 250, 125, 125,
  250, 250, 125, 125,
  250, 250, 250
};

int hedwigsTheme_melody[] = {
  NOTE_B3,
  NOTE_E4, NOTE_G4, NOTE_FS4, 
  NOTE_E4, NOTE_B4, 
  NOTE_A4,
  NOTE_FS4,

  NOTE_E4, NOTE_G4, NOTE_FS4,
  NOTE_D4, NOTE_F4,
  NOTE_B3,
  NOTE_B3, NOTE_B3,
  NOTE_E4, NOTE_G4, NOTE_FS4,

  NOTE_E4, NOTE_B4, 
  NOTE_D5, NOTE_CS5, //D4 ELLER G4
  NOTE_C5, NOTE_A4, //C4 ELLER GS4
  NOTE_C5, NOTE_B4, NOTE_AS4, // C4 ELLER E4
  NOTE_AS3, NOTE_G4, 
  NOTE_E4
  };

int hedwigsTheme_themeReal[] = {
  250,
  375, 125, 250,
  500, 250,
  750,
  750,

  375, 125, 250,
  500, 250,
  750,
  500, 250,
  375, 125, 250,

  500, 250,
  500, 250,
  500, 250,
  375, 125, 250,
  500, 250,
  1000
};



